<svg width="24" height="24" viewBox="0 0 24 24" fill="none" xmlns="http://www.w3.org/2000/svg">
<mask id="mask0_2418_26884" style="mask-type:alpha" maskUnits="userSpaceOnUse" x="0" y="0" width="24" height="24">
<rect width="24" height="24" fill="#D9D9D9"/>
</mask>
<g mask="url(#mask0_2418_26884)">
<path d="M6.32929 19.0707L6.4 19.1414L6.47071 19.0707L12 13.5414L17.5293 19.0707L17.6 19.1414L17.6707 19.0707L19.0707 17.6707L19.1414 17.6L19.0707 17.5293L13.5414 12L19.0707 6.47071L19.1414 6.4L19.0707 6.32929L17.6707 4.92929L17.6 4.85858L17.5293 4.92929L12 10.4586L6.47071 4.92929L6.4 4.85858L6.32929 4.92929L4.92929 6.32929L4.85858 6.4L4.92929 6.47071L10.4586 12L4.92929 17.5293L4.85858 17.6L4.92929 17.6707L6.32929 19.0707Z" fill="white" stroke="white" stroke-width="0.2"/>
</g>
</svg>
