<svg width="86" height="13" viewBox="0 0 86 13" fill="none" xmlns="http://www.w3.org/2000/svg">
<path d="M5.328 1.12H0.96V12H5.328C8.752 12 11.2 9.76 11.2 6.528C11.2 3.344 8.752 1.12 5.328 1.12ZM5.328 9.568H3.664V3.552H5.328C7.104 3.552 8.464 4.848 8.464 6.528C8.464 8.256 7.104 9.568 5.328 9.568ZM21.4473 12H24.3273L19.7193 1.12H17.1273L12.5032 12H15.3832L16.1033 10.128H20.7113L21.4473 12ZM16.9833 7.872L18.4072 4.208L19.8313 7.872H16.9833ZM34.0664 1.12V7.248L28.8184 1.12H26.7544V12H29.4584V6.032L34.6744 12H36.7544V1.12H34.0664ZM49.9243 1.12H47.2043V6.976C47.2043 8.64 46.2763 9.68 44.8523 9.68C43.4283 9.68 42.5163 8.64 42.5163 6.976V1.12H39.7963V6.928C39.7963 10.304 41.7483 12.208 44.8523 12.208C47.9723 12.208 49.9243 10.304 49.9243 6.928V1.12ZM57.2464 0.912C54.6864 0.912 52.9264 2.256 52.9264 4.432C52.9264 6.16 53.9344 7.136 56.0784 7.6L57.8704 7.984C58.8144 8.16 59.0224 8.56 59.0224 8.944C59.0224 9.552 58.4464 9.92 57.4864 9.92C56.2064 9.92 55.3904 9.312 55.2144 8.352H52.4944C52.7504 11.04 54.9584 12.208 57.4064 12.208C60.1264 12.208 61.9184 10.864 61.9184 8.688C61.9184 6.816 60.6384 6 58.6384 5.584L57.1184 5.264C56.2544 5.088 55.8064 4.816 55.8064 4.192C55.8064 3.488 56.4304 3.12 57.3904 3.12C58.5424 3.12 59.0384 3.68 59.1824 4.496H61.9024C61.6304 1.568 59.0064 0.912 57.2464 0.912ZM71.6129 1.12L68.9409 5.856L66.2849 1.12H63.2929L67.5969 8.72V12H70.3169V8.72L74.6049 1.12H71.6129ZM80.4626 0.912C77.9026 0.912 76.1426 2.256 76.1426 4.432C76.1426 6.16 77.1506 7.136 79.2946 7.6L81.0866 7.984C82.0306 8.16 82.2386 8.56 82.2386 8.944C82.2386 9.552 81.6626 9.92 80.7026 9.92C79.4226 9.92 78.6066 9.312 78.4306 8.352H75.7106C75.9666 11.04 78.1746 12.208 80.6226 12.208C83.3426 12.208 85.1346 10.864 85.1346 8.688C85.1346 6.816 83.8546 6 81.8546 5.584L80.3346 5.264C79.4706 5.088 79.0226 4.816 79.0226 4.192C79.0226 3.488 79.6466 3.12 80.6066 3.12C81.7586 3.12 82.2546 3.68 82.3986 4.496H85.1186C84.8466 1.568 82.2226 0.912 80.4626 0.912Z" fill="#0B0B0B"/>
</svg>
