<svg width="78" height="13" viewBox="0 0 78 13" fill="none" xmlns="http://www.w3.org/2000/svg">
<path d="M5.328 1.12H0.96V12H5.328C8.752 12 11.2 9.76 11.2 6.528C11.2 3.344 8.752 1.12 5.328 1.12ZM5.328 9.568H3.664V3.552H5.328C7.104 3.552 8.464 4.848 8.464 6.528C8.464 8.256 7.104 9.568 5.328 9.568ZM20.1673 12H23.0473L18.4393 1.12H15.8473L11.2233 12H14.1033L14.8233 10.128H19.4313L20.1673 12ZM15.7033 7.872L17.1273 4.208L18.5513 7.872H15.7033ZM31.5064 1.12V7.248L26.2584 1.12H24.1944V12H26.8984V6.032L32.1144 12H34.1944V1.12H31.5064ZM46.0843 1.12H43.3643V6.976C43.3643 8.64 42.4363 9.68 41.0123 9.68C39.5883 9.68 38.6763 8.64 38.6763 6.976V1.12H35.9563V6.928C35.9563 10.304 37.9083 12.208 41.0123 12.208C44.1323 12.208 46.0843 10.304 46.0843 6.928V1.12ZM52.1264 0.912C49.5664 0.912 47.8064 2.256 47.8064 4.432C47.8064 6.16 48.8144 7.136 50.9584 7.6L52.7504 7.984C53.6944 8.16 53.9024 8.56 53.9024 8.944C53.9024 9.552 53.3264 9.92 52.3664 9.92C51.0864 9.92 50.2704 9.312 50.0944 8.352H47.3744C47.6304 11.04 49.8384 12.208 52.2864 12.208C55.0064 12.208 56.7984 10.864 56.7984 8.688C56.7984 6.816 55.5184 6 53.5184 5.584L51.9984 5.264C51.1344 5.088 50.6864 4.816 50.6864 4.192C50.6864 3.488 51.3104 3.12 52.2704 3.12C53.4224 3.12 53.9184 3.68 54.0624 4.496H56.7824C56.5104 1.568 53.8864 0.912 52.1264 0.912ZM65.2129 1.12L62.5409 5.856L59.8849 1.12H56.8929L61.1969 8.72V12H63.9169V8.72L68.2049 1.12H65.2129ZM72.7826 0.912C70.2226 0.912 68.4626 2.256 68.4626 4.432C68.4626 6.16 69.4706 7.136 71.6146 7.6L73.4066 7.984C74.3506 8.16 74.5586 8.56 74.5586 8.944C74.5586 9.552 73.9826 9.92 73.0226 9.92C71.7426 9.92 70.9266 9.312 70.7506 8.352H68.0306C68.2866 11.04 70.4946 12.208 72.9426 12.208C75.6626 12.208 77.4546 10.864 77.4546 8.688C77.4546 6.816 76.1746 6 74.1746 5.584L72.6546 5.264C71.7906 5.088 71.3426 4.816 71.3426 4.192C71.3426 3.488 71.9666 3.12 72.9266 3.12C74.0786 3.12 74.5746 3.68 74.7186 4.496H77.4386C77.1666 1.568 74.5426 0.912 72.7826 0.912Z" fill="#0B0B0B"/>
</svg>
