<svg width="49" height="49" viewBox="0 0 49 49" fill="none" xmlns="http://www.w3.org/2000/svg">
<mask id="mask0_2415_26838" style="mask-type:alpha" maskUnits="userSpaceOnUse" x="0" y="0" width="49" height="49">
<rect x="0.5" y="0.5" width="48" height="48" fill="#D9D9D9"/>
</mask>
<g mask="url(#mask0_2415_26838)">
<path d="M22.5 34.5H26.5V22.5H22.5V34.5ZM24.5 18.5C25.0667 18.5 25.542 18.308 25.926 17.924C26.3087 17.5413 26.5 17.0667 26.5 16.5C26.5 15.9333 26.3087 15.458 25.926 15.074C25.542 14.6913 25.0667 14.5 24.5 14.5C23.9333 14.5 23.4587 14.6913 23.076 15.074C22.692 15.458 22.5 15.9333 22.5 16.5C22.5 17.0667 22.692 17.5413 23.076 17.924C23.4587 18.308 23.9333 18.5 24.5 18.5ZM24.5 44.5C21.7333 44.5 19.1333 43.9747 16.7 42.924C14.2667 41.8747 12.15 40.45 10.35 38.65C8.55 36.85 7.12533 34.7333 6.076 32.3C5.02533 29.8667 4.5 27.2667 4.5 24.5C4.5 21.7333 5.02533 19.1333 6.076 16.7C7.12533 14.2667 8.55 12.15 10.35 10.35C12.15 8.55 14.2667 7.12467 16.7 6.074C19.1333 5.02467 21.7333 4.5 24.5 4.5C27.2667 4.5 29.8667 5.02467 32.3 6.074C34.7333 7.12467 36.85 8.55 38.65 10.35C40.45 12.15 41.8747 14.2667 42.924 16.7C43.9747 19.1333 44.5 21.7333 44.5 24.5C44.5 27.2667 43.9747 29.8667 42.924 32.3C41.8747 34.7333 40.45 36.85 38.65 38.65C36.85 40.45 34.7333 41.8747 32.3 42.924C29.8667 43.9747 27.2667 44.5 24.5 44.5ZM24.5 40.5C28.9667 40.5 32.75 38.95 35.85 35.85C38.95 32.75 40.5 28.9667 40.5 24.5C40.5 20.0333 38.95 16.25 35.85 13.15C32.75 10.05 28.9667 8.5 24.5 8.5C20.0333 8.5 16.25 10.05 13.15 13.15C10.05 16.25 8.5 20.0333 8.5 24.5C8.5 28.9667 10.05 32.75 13.15 35.85C16.25 38.95 20.0333 40.5 24.5 40.5Z" fill="#333333"/>
</g>
</svg>
