<svg width="98" height="13" viewBox="0 0 98 13" fill="none" xmlns="http://www.w3.org/2000/svg">
<path d="M5.688 11.024C3.224 11.024 1.304 9.104 1.304 6.56C1.304 4.016 3.224 2.112 5.688 2.112C7.672 2.112 9.112 3.232 9.56 5.008H10.872C10.36 2.56 8.36 0.927999 5.688 0.927999C2.552 0.927999 0.024 3.344 0.024 6.56C0.024 9.776 2.552 12.208 5.688 12.208C8.36 12.208 10.36 10.56 10.872 8.112H9.56C9.112 9.872 7.672 11.024 5.688 11.024ZM14.4186 5.792V4.576H13.2026V12H14.4186V7.168C15.0746 6.144 16.0666 5.584 17.2826 5.552V4.4C16.0986 4.4 15.1066 4.912 14.4186 5.792ZM22.1735 4.384C19.9335 4.384 18.3655 6.096 18.3655 8.288C18.3655 10.48 19.9495 12.192 22.2375 12.192C23.8375 12.192 25.1175 11.424 25.5815 10.144H24.2215C23.9015 10.768 23.1815 11.104 22.2375 11.104C20.6855 11.104 19.7415 10.032 19.5975 8.656H25.8055C26.0455 6.224 24.5575 4.384 22.1735 4.384ZM22.1735 5.44C23.5815 5.44 24.5255 6.32 24.5895 7.792H19.6135C19.7895 6.48 20.7015 5.44 22.1735 5.44ZM34.1256 4.576V5.344C33.4696 4.736 32.5736 4.384 31.5176 4.384C29.3896 4.384 27.6936 6.128 27.6936 8.288C27.6936 10.464 29.3896 12.192 31.5176 12.192C32.5736 12.192 33.4696 11.84 34.1256 11.232V12H35.3416V4.576H34.1256ZM31.6776 11.072C30.1096 11.072 28.9096 9.824 28.9096 8.288C28.9096 6.752 30.1096 5.504 31.6776 5.504C32.6536 5.504 33.5176 5.872 34.1256 6.768V9.808C33.5176 10.704 32.6536 11.072 31.6776 11.072ZM42.7363 10.8C42.3363 10.944 41.8723 11.056 41.4563 11.056C40.4003 11.056 39.8563 10.528 39.8563 9.248V5.616H42.6563V4.576H39.8563V1.84H38.6403V4.576H36.7043V5.616H38.6403V9.248C38.6403 11.184 39.5203 12.192 41.3443 12.192C41.7923 12.192 42.3043 12.128 42.9123 11.92L42.7363 10.8ZM45.7061 2.592C46.1701 2.592 46.5381 2.24 46.5381 1.792C46.5381 1.328 46.1701 0.976 45.7061 0.976C45.2421 0.976 44.8901 1.328 44.8901 1.792C44.8901 2.24 45.2421 2.592 45.7061 2.592ZM45.1141 4.576V12H46.3301V4.576H45.1141ZM54.8756 4.576L52.1076 10.464L49.3396 4.576H48.0436L51.5476 12H52.6676L56.1716 4.576H54.8756ZM60.7516 4.384C58.5116 4.384 56.9436 6.096 56.9436 8.288C56.9436 10.48 58.5276 12.192 60.8156 12.192C62.4156 12.192 63.6956 11.424 64.1596 10.144H62.7996C62.4796 10.768 61.7596 11.104 60.8156 11.104C59.2636 11.104 58.3196 10.032 58.1756 8.656H64.3836C64.6236 6.224 63.1356 4.384 60.7516 4.384ZM60.7516 5.44C62.1596 5.44 63.1036 6.32 63.1676 7.792H58.1916C58.3676 6.48 59.2796 5.44 60.7516 5.44ZM72.4083 10.832V1.12H71.1443V12H78.4083V10.832H72.4083ZM86.2663 4.576V5.344C85.6103 4.736 84.7143 4.384 83.6583 4.384C81.5303 4.384 79.8343 6.128 79.8343 8.288C79.8343 10.464 81.5303 12.192 83.6583 12.192C84.7143 12.192 85.6103 11.84 86.2663 11.232V12H87.4823V4.576H86.2663ZM83.8183 11.072C82.2503 11.072 81.0503 9.824 81.0503 8.288C81.0503 6.752 82.2503 5.504 83.8183 5.504C84.7943 5.504 85.6583 5.872 86.2663 6.768V9.808C85.6583 10.704 84.7943 11.072 83.8183 11.072ZM93.9329 4.384C92.8769 4.384 91.9809 4.736 91.3249 5.344V0.639999H90.1089V12H91.3249V11.232C91.9809 11.84 92.8769 12.192 93.9329 12.192C96.0609 12.192 97.7569 10.448 97.7569 8.288C97.7569 6.112 96.0609 4.384 93.9329 4.384ZM93.7729 11.072C92.7969 11.072 91.9329 10.704 91.3249 9.808V6.768C91.9329 5.872 92.7969 5.504 93.7729 5.504C95.3409 5.504 96.5409 6.752 96.5409 8.288C96.5409 9.824 95.3409 11.072 93.7729 11.072Z" fill="#0B0B0B"/>
</svg>
