<svg width="24" height="24" viewBox="0 0 24 24" fill="none" xmlns="http://www.w3.org/2000/svg">
<mask id="mask0_2413_27571" style="mask-type:alpha" maskUnits="userSpaceOnUse" x="0" y="0" width="24" height="24">
<rect x="24" width="24" height="24" transform="rotate(90 24 0)" fill="#D9D9D9"/>
</mask>
<g mask="url(#mask0_2413_27571)">
<path d="M4 6C4 5.45 4.19567 4.97933 4.587 4.588C4.979 4.196 5.45 4 6 4L9 4L9 6L6 6L6 18L9 18L9 20L6 20C5.45 20 4.979 19.8043 4.587 19.413C4.19567 19.021 4 18.55 4 18L4 6ZM8 11L16.15 11L13.55 8.4L15 7L20 12L15 17L13.55 15.6L16.15 13L8 13L8 11Z" fill="#333333"/>
</g>
</svg>
