<svg width="49" height="49" viewBox="0 0 49 49" fill="none" xmlns="http://www.w3.org/2000/svg">
<mask id="mask0_2415_26841" style="mask-type:alpha" maskUnits="userSpaceOnUse" x="0" y="0" width="49" height="49">
<rect x="0.5" y="0.5" width="48" height="48" fill="#D9D9D9"/>
</mask>
<g mask="url(#mask0_2415_26841)">
<path d="M30.5 42.5L18.5 38.3L9.2 41.9C8.53333 42.1667 7.91667 42.0913 7.35 41.674C6.78333 41.258 6.5 40.7 6.5 40V12C6.5 11.5667 6.62533 11.1833 6.876 10.85C7.12533 10.5167 7.46667 10.2667 7.9 10.1L18.5 6.5L30.5 10.7L39.8 7.1C40.4667 6.83333 41.0833 6.908 41.65 7.324C42.2167 7.74133 42.5 8.3 42.5 9V37C42.5 37.4333 42.3747 37.8167 42.124 38.15C41.8747 38.4833 41.5333 38.7333 41.1 38.9L30.5 42.5ZM28.5 37.6V14.2L20.5 11.4V34.8L28.5 37.6ZM32.5 37.6L38.5 35.6V11.9L32.5 14.2V37.6ZM10.5 37.1L16.5 34.8V11.4L10.5 13.4V37.1Z" fill="#333333"/>
</g>
</svg>
