<svg width="18" height="18" viewBox="0 0 18 18" fill="none" xmlns="http://www.w3.org/2000/svg">
<mask id="mask0_2691_22965" style="mask-type:alpha" maskUnits="userSpaceOnUse" x="0" y="0" width="18" height="18">
<rect width="18" height="18" fill="#D9D9D9"/>
</mask>
<g mask="url(#mask0_2691_22965)">
<path d="M3.16667 16.5C2.70833 16.5 2.31583 16.3369 1.98917 16.0108C1.66306 15.6842 1.5 15.2917 1.5 14.8333V3.16667C1.5 2.70833 1.66306 2.31583 1.98917 1.98917C2.31583 1.66306 2.70833 1.5 3.16667 1.5H9V3.16667H3.16667V14.8333H14.8333V9H16.5V14.8333C16.5 15.2917 16.3369 15.6842 16.0108 16.0108C15.6842 16.3369 15.2917 16.5 14.8333 16.5H3.16667ZM7.08333 12.0833L5.91667 10.9167L13.6667 3.16667H10.6667V1.5H16.5V7.33333H14.8333V4.33333L7.08333 12.0833Z" fill="#333333"/>
</g>
</svg>
