<svg width="49" height="49" viewBox="0 0 49 49" fill="none" xmlns="http://www.w3.org/2000/svg">
<mask id="mask0_2415_26844" style="mask-type:alpha" maskUnits="userSpaceOnUse" x="0" y="0" width="49" height="49">
<rect x="0.5" y="0.5" width="48" height="48" fill="#D9D9D9"/>
</mask>
<g mask="url(#mask0_2415_26844)">
<path d="M39.7 42.5L27.1 29.9C26.1 30.7 24.95 31.3333 23.65 31.8C22.35 32.2667 20.9667 32.5 19.5 32.5C15.8667 32.5 12.792 31.242 10.276 28.726C7.75867 26.2087 6.5 23.1333 6.5 19.5C6.5 15.8667 7.75867 12.7913 10.276 10.274C12.792 7.758 15.8667 6.5 19.5 6.5C23.1333 6.5 26.2087 7.758 28.726 10.274C31.242 12.7913 32.5 15.8667 32.5 19.5C32.5 20.9667 32.2667 22.35 31.8 23.65C31.3333 24.95 30.7 26.1 29.9 27.1L42.5 39.7L39.7 42.5ZM19.5 28.5C22 28.5 24.1253 27.6253 25.876 25.876C27.6253 24.1253 28.5 22 28.5 19.5C28.5 17 27.6253 14.8747 25.876 13.124C24.1253 11.3747 22 10.5 19.5 10.5C17 10.5 14.8747 11.3747 13.124 13.124C11.3747 14.8747 10.5 17 10.5 19.5C10.5 22 11.3747 24.1253 13.124 25.876C14.8747 27.6253 17 28.5 19.5 28.5Z" fill="#333333"/>
</g>
</svg>
