<svg width="49" height="49" viewBox="0 0 49 49" fill="none" xmlns="http://www.w3.org/2000/svg">
<mask id="mask0_2415_26835" style="mask-type:alpha" maskUnits="userSpaceOnUse" x="0" y="0" width="49" height="49">
<rect x="0.5" y="0.5" width="48" height="48" fill="#D9D9D9"/>
</mask>
<g mask="url(#mask0_2415_26835)">
<path d="M19.0009 44.5L18.2009 38.1C17.7675 37.9333 17.3595 37.7333 16.9769 37.5C16.5929 37.2667 16.2175 37.0167 15.8509 36.75L9.90088 39.25L4.40088 29.75L9.55088 25.85C9.51755 25.6167 9.50088 25.3913 9.50088 25.174V23.824C9.50088 23.608 9.51755 23.3833 9.55088 23.15L4.40088 19.25L9.90088 9.75L15.8509 12.25C16.2175 11.9833 16.6009 11.7333 17.0009 11.5C17.4009 11.2667 17.8009 11.0667 18.2009 10.9L19.0009 4.5H30.0009L30.8009 10.9C31.2342 11.0667 31.6429 11.2667 32.0269 11.5C32.4095 11.7333 32.7842 11.9833 33.1509 12.25L39.1009 9.75L44.6009 19.25L39.4509 23.15C39.4842 23.3833 39.5009 23.608 39.5009 23.824V25.174C39.5009 25.3913 39.4675 25.6167 39.4009 25.85L44.5509 29.75L39.0509 39.25L33.1509 36.75C32.7842 37.0167 32.4009 37.2667 32.0009 37.5C31.6009 37.7333 31.2009 37.9333 30.8009 38.1L30.0009 44.5H19.0009ZM24.6009 31.5C26.5342 31.5 28.1842 30.8167 29.5509 29.45C30.9175 28.0833 31.6009 26.4333 31.6009 24.5C31.6009 22.5667 30.9175 20.9167 29.5509 19.55C28.1842 18.1833 26.5342 17.5 24.6009 17.5C22.6342 17.5 20.9755 18.1833 19.6249 19.55C18.2755 20.9167 17.6009 22.5667 17.6009 24.5C17.6009 26.4333 18.2755 28.0833 19.6249 29.45C20.9755 30.8167 22.6342 31.5 24.6009 31.5ZM24.6009 27.5C23.7675 27.5 23.0595 27.208 22.4769 26.624C21.8929 26.0413 21.6009 25.3333 21.6009 24.5C21.6009 23.6667 21.8929 22.9587 22.4769 22.376C23.0595 21.792 23.7675 21.5 24.6009 21.5C25.4342 21.5 26.1429 21.792 26.7269 22.376C27.3095 22.9587 27.6009 23.6667 27.6009 24.5C27.6009 25.3333 27.3095 26.0413 26.7269 26.624C26.1429 27.208 25.4342 27.5 24.6009 27.5ZM22.5009 40.5H26.4509L27.1509 35.2C28.1842 34.9333 29.1429 34.5413 30.0269 34.024C30.9095 33.508 31.7175 32.8833 32.4509 32.15L37.4009 34.2L39.3509 30.8L35.0509 27.55C35.2175 27.0833 35.3342 26.5913 35.4009 26.074C35.4675 25.558 35.5009 25.0333 35.5009 24.5C35.5009 23.9667 35.4675 23.4413 35.4009 22.924C35.3342 22.408 35.2175 21.9167 35.0509 21.45L39.3509 18.2L37.4009 14.8L32.4509 16.9C31.7175 16.1333 30.9095 15.4913 30.0269 14.974C29.1429 14.458 28.1842 14.0667 27.1509 13.8L26.5009 8.5H22.5509L21.8509 13.8C20.8175 14.0667 19.8595 14.458 18.9769 14.974C18.0929 15.4913 17.2842 16.1167 16.5509 16.85L11.6009 14.8L9.65088 18.2L13.9509 21.4C13.7842 21.9 13.6675 22.4 13.6009 22.9C13.5342 23.4 13.5009 23.9333 13.5009 24.5C13.5009 25.0333 13.5342 25.55 13.6009 26.05C13.6675 26.55 13.7842 27.05 13.9509 27.55L9.65088 30.8L11.6009 34.2L16.5509 32.1C17.2842 32.8667 18.0929 33.508 18.9769 34.024C19.8595 34.5413 20.8175 34.9333 21.8509 35.2L22.5009 40.5Z" fill="#333333"/>
</g>
</svg>
